<svg width="24.000000" height="24.000000" viewBox="0 0 24 24" fill="none" xmlns="http://www.w3.org/2000/svg" xmlns:xlink="http://www.w3.org/1999/xlink">
	<desc>
			Created with Pixso.
	</desc>
	<defs/>
	<rect id="vuesax/linear/like" width="24.000000" height="24.000000" fill="#FFFFFF" fill-opacity="0"/>
	<path id="Vector" d="M7.47 18.35L10.58 20.75C10.98 21.15 11.88 21.35 12.48 21.35L16.28 21.35C17.48 21.35 18.78 20.45 19.08 19.25L21.48 11.95C21.98 10.55 21.08 9.34 19.58 9.34L15.58 9.34C14.98 9.34 14.48 8.84 14.58 8.14L15.08 4.94C15.28 4.04 14.67 3.04 13.78 2.74C12.98 2.44 11.98 2.84 11.58 3.44L7.47 " stroke="#7B6EF6" stroke-opacity="1.000000" stroke-width="1.500000"/>
	<path id="Vector" d="M2.38 8.55C2.38 7.15 2.97 6.65 4.38 6.65L5.38 6.65C6.78 6.65 7.38 7.15 7.38 8.55L7.38 18.35C7.38 19.75 6.78 20.25 5.38 20.25L4.38 20.25C2.97 20.25 2.38 19.75 2.38 18.35L2.38 8.55Z" stroke="#7B6EF6" stroke-opacity="1.000000" stroke-width="1.500000" stroke-linejoin="round"/>
	<g opacity="0.000000"/>
</svg>
