<svg width="15.000000" height="15.000000" viewBox="0 0 15 15" fill="none" xmlns="http://www.w3.org/2000/svg">
    <path id="Vector" d="M9.32 3.68C9.48 4.01 9.91 4.32 10.27 4.38L12.39 4.74C13.75 4.96 14.08 5.95 13.1 6.92L11.44 8.58C11.16 8.86 11.01 9.4 11.1 9.78L11.57 11.83C11.94 13.45 11.08 14.08 9.65 13.23L7.65 12.05C7.29 11.84 6.7 11.84 6.33 12.05L4.34 13.23C2.91 14.08 2.05 13.44 2.42 11.83L2.89 9.78C2.98 9.4 2.83 8.86 2.55 8.58L0.89 6.92C-0.08 5.95 0.23 4.96 1.59 4.74L3.72 4.38C4.07 4.32 4.5 4.01 4.66 3.68L5.83 1.34C6.47 0.06 7.51 0.06 8.15 1.34L9.32 3.68Z" stroke="#FFBD6D" strokeOpacity="1.000000" strokeWidth="1.500000" strokeLinejoin="round"/>
</svg>